<?xml version="1.0" encoding="UTF-8" standalone="no"?>
<svg
   data-name="Layer 1"
   id="Layer_1"
   viewBox="0 0 48 48"
   version="1.1"
   sodipodi:docname="surge_dm.svg"
   inkscape:version="1.3.2 (091e20ef0f, 2023-11-25)"
   inkscape:export-filename="surge_dm.png"
   inkscape:export-xdpi="1024"
   inkscape:export-ydpi="1024"
   xmlns:inkscape="http://www.inkscape.org/namespaces/inkscape"
   xmlns:sodipodi="http://sodipodi.sourceforge.net/DTD/sodipodi-0.dtd"
   xmlns="http://www.w3.org/2000/svg"
   xmlns:svg="http://www.w3.org/2000/svg">
  <sodipodi:namedview
     id="namedview4"
     pagecolor="#ffffff"
     bordercolor="#666666"
     borderopacity="1.0"
     inkscape:showpageshadow="2"
     inkscape:pageopacity="0.0"
     inkscape:pagecheckerboard="0"
     inkscape:deskcolor="#d1d1d1"
     inkscape:zoom="16.58"
     inkscape:cx="16.16"
     inkscape:cy="23.52"
     inkscape:window-width="1920"
     inkscape:window-height="1016"
     inkscape:window-x="0"
     inkscape:window-y="0"
     inkscape:window-maximized="1"
     inkscape:current-layer="Layer_1" />
  <defs
     id="defs1">
    <style
       id="style1">
      .cls-1, .cls-2 {
        fill: none;
        stroke: #353535;
        stroke-width: 2px;
      }

      .cls-1 {
        stroke-linecap: round;
        stroke-linejoin: round;
      }

      .cls-2 {
        stroke-miterlimit: 10;
      }
    </style>
  </defs>
  <title
     id="title1" />
  <g
     id="g4"
     transform="matrix(0.7433,0,0,0.7433,6.194,6.161)">
    <path
       class="cls-1"
       d="m 43,10.65 v 34.7 A 1.652,1.652 0 0 1 41.35,47 H 16.56 A 1.652,1.652 0 0 1 14.91,45.35 V 18.09 L 24,9 H 41.35 A 1.652,1.652 0 0 1 43,10.65 Z"
       id="path1" />
    <polyline
       class="cls-1"
       points="18.392 18.913 24.107 18.913 24 9"
       id="polyline1" />
    <g
       id="g2">
      <circle
         class="cls-2"
         cx="29"
         cy="31.2"
         r="3"
         id="circle1" />
      <path
         class="cls-1"
         d="m 30.33,41 0.77,-2.18 1.94,-0.8 2.09,0.99 1.88,-1.88 -0.99,-2.09 0.8,-1.94 L 39,32.33 V 29.67 L 36.82,28.9 36.02,26.96 37.01,24.87 35.13,22.99 33.04,23.98 31.1,23.18 30.33,21 h -2.66 l -0.77,2.18 -1.94,0.8 -2.09,-0.99 -1.88,1.88 0.99,2.09 -0.8,1.94 -2.18,0.77 v 2.66 l 2.18,0.77 0.8,1.94 -0.99,2.09 1.88,1.88 2.09,-0.99 1.94,0.8 0.72,2.18 z"
         id="path2" />
    </g>
    <path
       class="cls-1"
       d="M 14.88,43 H 11.56 A 1.652,1.652 0 0 1 9.911,41.35 V 14.09 L 19,5 H 36.35 A 1.652,1.652 0 0 1 38,6.652 V 9"
       id="path3" />
    <path
       class="cls-1"
       d="M 9.75,39 H 6.564 A 1.652,1.652 0 0 1 4.911,37.35 V 10.09 L 14,1 H 31.35 A 1.652,1.652 0 0 1 33,2.652 v 2.223"
       id="path4" />
  </g>
</svg>
